<svg xmlns="http://www.w3.org/2000/svg" xmlns:xlink="http://www.w3.org/1999/xlink" width="6912" zoomAndPan="magnify" viewBox="0 0 5184 2592.000001" height="3456" preserveAspectRatio="xMidYMid meet" version="1.0"><defs><g/></defs><g fill="#01007c" fill-opacity="1"><g transform="translate(1019.765713, 964.81747)"><g><path d="M 194.21875 -48.265625 L 92.25 -48.265625 L 75.890625 0 L 6.234375 0 L 105.09375 -273.234375 L 182.15625 -273.234375 L 281.015625 0 L 210.5625 0 Z M 177.09375 -99.640625 L 143.234375 -199.671875 L 109.765625 -99.640625 Z M 177.09375 -99.640625 "/></g></g></g><g fill="#01007c" fill-opacity="1"><g transform="translate(1331.140285, 964.81747)"><g><path d="M 123 2.71875 C 103.007812 2.71875 85.097656 -0.519531 69.265625 -7 C 53.441406 -13.488281 40.796875 -23.085938 31.328125 -35.796875 C 21.859375 -48.515625 16.863281 -63.828125 16.34375 -81.734375 L 87.1875 -81.734375 C 88.21875 -71.617188 91.71875 -63.898438 97.6875 -58.578125 C 103.65625 -53.253906 111.441406 -50.59375 121.046875 -50.59375 C 130.910156 -50.59375 138.695312 -52.863281 144.40625 -57.40625 C 150.113281 -61.945312 152.96875 -68.238281 152.96875 -76.28125 C 152.96875 -83.03125 150.695312 -88.609375 146.15625 -93.015625 C 141.613281 -97.429688 136.03125 -101.066406 129.40625 -103.921875 C 122.789062 -106.773438 113.390625 -110.019531 101.203125 -113.65625 C 83.554688 -119.101562 69.148438 -124.550781 57.984375 -130 C 46.828125 -135.445312 37.226562 -143.488281 29.1875 -154.125 C 21.144531 -164.769531 17.125 -178.65625 17.125 -195.78125 C 17.125 -221.207031 26.332031 -241.117188 44.75 -255.515625 C 63.175781 -269.921875 87.179688 -277.125 116.765625 -277.125 C 146.867188 -277.125 171.128906 -269.921875 189.546875 -255.515625 C 207.972656 -241.117188 217.832031 -221.078125 219.125 -195.390625 L 147.125 -195.390625 C 146.601562 -204.210938 143.359375 -211.148438 137.390625 -216.203125 C 131.421875 -221.265625 123.769531 -223.796875 114.4375 -223.796875 C 106.382812 -223.796875 99.894531 -221.65625 94.96875 -217.375 C 90.039062 -213.09375 87.578125 -206.929688 87.578125 -198.890625 C 87.578125 -190.066406 91.726562 -183.1875 100.03125 -178.25 C 108.332031 -173.320312 121.304688 -168.003906 138.953125 -162.296875 C 156.597656 -156.335938 170.929688 -150.628906 181.953125 -145.171875 C 192.984375 -139.722656 202.519531 -131.8125 210.5625 -121.4375 C 218.613281 -111.0625 222.640625 -97.695312 222.640625 -81.34375 C 222.640625 -65.78125 218.679688 -51.640625 210.765625 -38.921875 C 202.847656 -26.203125 191.363281 -16.082031 176.3125 -8.5625 C 161.257812 -1.039062 143.488281 2.71875 123 2.71875 Z M 123 2.71875 "/></g></g></g><g fill="#01007c" fill-opacity="1"><g transform="translate(1595.030313, 964.81747)"><g><path d="M 123 2.71875 C 103.007812 2.71875 85.097656 -0.519531 69.265625 -7 C 53.441406 -13.488281 40.796875 -23.085938 31.328125 -35.796875 C 21.859375 -48.515625 16.863281 -63.828125 16.34375 -81.734375 L 87.1875 -81.734375 C 88.21875 -71.617188 91.71875 -63.898438 97.6875 -58.578125 C 103.65625 -53.253906 111.441406 -50.59375 121.046875 -50.59375 C 130.910156 -50.59375 138.695312 -52.863281 144.40625 -57.40625 C 150.113281 -61.945312 152.96875 -68.238281 152.96875 -76.28125 C 152.96875 -83.03125 150.695312 -88.609375 146.15625 -93.015625 C 141.613281 -97.429688 136.03125 -101.066406 129.40625 -103.921875 C 122.789062 -106.773438 113.390625 -110.019531 101.203125 -113.65625 C 83.554688 -119.101562 69.148438 -124.550781 57.984375 -130 C 46.828125 -135.445312 37.226562 -143.488281 29.1875 -154.125 C 21.144531 -164.769531 17.125 -178.65625 17.125 -195.78125 C 17.125 -221.207031 26.332031 -241.117188 44.75 -255.515625 C 63.175781 -269.921875 87.179688 -277.125 116.765625 -277.125 C 146.867188 -277.125 171.128906 -269.921875 189.546875 -255.515625 C 207.972656 -241.117188 217.832031 -221.078125 219.125 -195.390625 L 147.125 -195.390625 C 146.601562 -204.210938 143.359375 -211.148438 137.390625 -216.203125 C 131.421875 -221.265625 123.769531 -223.796875 114.4375 -223.796875 C 106.382812 -223.796875 99.894531 -221.65625 94.96875 -217.375 C 90.039062 -213.09375 87.578125 -206.929688 87.578125 -198.890625 C 87.578125 -190.066406 91.726562 -183.1875 100.03125 -178.25 C 108.332031 -173.320312 121.304688 -168.003906 138.953125 -162.296875 C 156.597656 -156.335938 170.929688 -150.628906 181.953125 -145.171875 C 192.984375 -139.722656 202.519531 -131.8125 210.5625 -121.4375 C 218.613281 -111.0625 222.640625 -97.695312 222.640625 -81.34375 C 222.640625 -65.78125 218.679688 -51.640625 210.765625 -38.921875 C 202.847656 -26.203125 191.363281 -16.082031 176.3125 -8.5625 C 161.257812 -1.039062 143.488281 2.71875 123 2.71875 Z M 123 2.71875 "/></g></g></g><g fill="#01007c" fill-opacity="1"><g transform="translate(1858.920291, 964.81747)"><g><path d="M 90.6875 -219.90625 L 90.6875 -164.640625 L 179.8125 -164.640625 L 179.8125 -113.265625 L 90.6875 -113.265625 L 90.6875 -53.328125 L 191.5 -53.328125 L 191.5 0 L 24.125 0 L 24.125 -273.234375 L 191.5 -273.234375 L 191.5 -219.90625 Z M 90.6875 -219.90625 "/></g></g></g><g fill="#01007c" fill-opacity="1"><g transform="translate(2094.008105, 964.81747)"><g><path d="M 220.6875 -273.234375 L 220.6875 -219.90625 L 148.296875 -219.90625 L 148.296875 0 L 81.734375 0 L 81.734375 -219.90625 L 9.34375 -219.90625 L 9.34375 -273.234375 Z M 220.6875 -273.234375 "/></g></g></g><g fill="#01007c" fill-opacity="1"><g transform="translate(1019.765713, 1431.141645)"><g><path d="M 333.5625 -273.234375 L 333.5625 0 L 267 0 L 267 -163.859375 L 205.890625 0 L 152.1875 0 L 90.6875 -164.25 L 90.6875 0 L 24.125 0 L 24.125 -273.234375 L 102.75 -273.234375 L 179.4375 -84.078125 L 255.328125 -273.234375 Z M 333.5625 -273.234375 "/></g></g></g><g fill="#01007c" fill-opacity="1"><g transform="translate(1401.588787, 1431.141645)"><g><path d="M 194.21875 -48.265625 L 92.25 -48.265625 L 75.890625 0 L 6.234375 0 L 105.09375 -273.234375 L 182.15625 -273.234375 L 281.015625 0 L 210.5625 0 Z M 177.09375 -99.640625 L 143.234375 -199.671875 L 109.765625 -99.640625 Z M 177.09375 -99.640625 "/></g></g></g><g fill="#01007c" fill-opacity="1"><g transform="translate(1712.963359, 1431.141645)"><g><path d="M 268.5625 0 L 202 0 L 90.6875 -168.53125 L 90.6875 0 L 24.125 0 L 24.125 -273.234375 L 90.6875 -273.234375 L 202 -103.921875 L 202 -273.234375 L 268.5625 -273.234375 Z M 268.5625 0 "/></g></g></g><g fill="#01007c" fill-opacity="1"><g transform="translate(2030.176195, 1431.141645)"><g><path d="M 194.21875 -48.265625 L 92.25 -48.265625 L 75.890625 0 L 6.234375 0 L 105.09375 -273.234375 L 182.15625 -273.234375 L 281.015625 0 L 210.5625 0 Z M 177.09375 -99.640625 L 143.234375 -199.671875 L 109.765625 -99.640625 Z M 177.09375 -99.640625 "/></g></g></g><g fill="#01007c" fill-opacity="1"><g transform="translate(2341.550716, 1431.141645)"><g><path d="M 205.5 -186.828125 C 200.570312 -195.910156 193.503906 -202.847656 184.296875 -207.640625 C 175.085938 -212.441406 164.253906 -214.84375 151.796875 -214.84375 C 130.253906 -214.84375 112.992188 -207.769531 100.015625 -193.625 C 87.046875 -179.488281 80.5625 -160.613281 80.5625 -137 C 80.5625 -111.832031 87.375 -92.175781 101 -78.03125 C 114.625 -63.894531 133.375 -56.828125 157.25 -56.828125 C 173.59375 -56.828125 187.40625 -60.976562 198.6875 -69.28125 C 209.976562 -77.582031 218.21875 -89.519531 223.40625 -105.09375 L 138.953125 -105.09375 L 138.953125 -154.125 L 283.734375 -154.125 L 283.734375 -92.25 C 278.804688 -75.632812 270.4375 -60.191406 258.625 -45.921875 C 246.820312 -31.648438 231.835938 -20.101562 213.671875 -11.28125 C 195.515625 -2.457031 175.019531 1.953125 152.1875 1.953125 C 125.195312 1.953125 101.128906 -3.945312 79.984375 -15.75 C 58.835938 -27.5625 42.359375 -43.976562 30.546875 -65 C 18.742188 -86.019531 12.84375 -110.019531 12.84375 -137 C 12.84375 -163.988281 18.742188 -188.054688 30.546875 -209.203125 C 42.359375 -230.347656 58.769531 -246.820312 79.78125 -258.625 C 100.800781 -270.4375 124.804688 -276.34375 151.796875 -276.34375 C 184.492188 -276.34375 212.0625 -268.425781 234.5 -252.59375 C 256.945312 -236.769531 271.800781 -214.847656 279.0625 -186.828125 Z M 205.5 -186.828125 "/></g></g></g><g fill="#01007c" fill-opacity="1"><g transform="translate(2662.655723, 1431.141645)"><g><path d="M 90.6875 -219.90625 L 90.6875 -164.640625 L 179.8125 -164.640625 L 179.8125 -113.265625 L 90.6875 -113.265625 L 90.6875 -53.328125 L 191.5 -53.328125 L 191.5 0 L 24.125 0 L 24.125 -273.234375 L 191.5 -273.234375 L 191.5 -219.90625 Z M 90.6875 -219.90625 "/></g></g></g><g fill="#01007c" fill-opacity="1"><g transform="translate(2897.743649, 1431.141645)"><g><path d="M 333.5625 -273.234375 L 333.5625 0 L 267 0 L 267 -163.859375 L 205.890625 0 L 152.1875 0 L 90.6875 -164.25 L 90.6875 0 L 24.125 0 L 24.125 -273.234375 L 102.75 -273.234375 L 179.4375 -84.078125 L 255.328125 -273.234375 Z M 333.5625 -273.234375 "/></g></g></g><g fill="#01007c" fill-opacity="1"><g transform="translate(3279.566671, 1431.141645)"><g><path d="M 90.6875 -219.90625 L 90.6875 -164.640625 L 179.8125 -164.640625 L 179.8125 -113.265625 L 90.6875 -113.265625 L 90.6875 -53.328125 L 191.5 -53.328125 L 191.5 0 L 24.125 0 L 24.125 -273.234375 L 191.5 -273.234375 L 191.5 -219.90625 Z M 90.6875 -219.90625 "/></g></g></g><g fill="#01007c" fill-opacity="1"><g transform="translate(3514.654597, 1431.141645)"><g><path d="M 268.5625 0 L 202 0 L 90.6875 -168.53125 L 90.6875 0 L 24.125 0 L 24.125 -273.234375 L 90.6875 -273.234375 L 202 -103.921875 L 202 -273.234375 L 268.5625 -273.234375 Z M 268.5625 0 "/></g></g></g><g fill="#01007c" fill-opacity="1"><g transform="translate(3831.867323, 1431.141645)"><g><path d="M 220.6875 -273.234375 L 220.6875 -219.90625 L 148.296875 -219.90625 L 148.296875 0 L 81.734375 0 L 81.734375 -219.90625 L 9.34375 -219.90625 L 9.34375 -273.234375 Z M 220.6875 -273.234375 "/></g></g></g><g fill="#01007c" fill-opacity="1"><g transform="translate(1019.765713, 1897.465941)"><g><path d="M 123 2.71875 C 103.007812 2.71875 85.097656 -0.519531 69.265625 -7 C 53.441406 -13.488281 40.796875 -23.085938 31.328125 -35.796875 C 21.859375 -48.515625 16.863281 -63.828125 16.34375 -81.734375 L 87.1875 -81.734375 C 88.21875 -71.617188 91.71875 -63.898438 97.6875 -58.578125 C 103.65625 -53.253906 111.441406 -50.59375 121.046875 -50.59375 C 130.910156 -50.59375 138.695312 -52.863281 144.40625 -57.40625 C 150.113281 -61.945312 152.96875 -68.238281 152.96875 -76.28125 C 152.96875 -83.03125 150.695312 -88.609375 146.15625 -93.015625 C 141.613281 -97.429688 136.03125 -101.066406 129.40625 -103.921875 C 122.789062 -106.773438 113.390625 -110.019531 101.203125 -113.65625 C 83.554688 -119.101562 69.148438 -124.550781 57.984375 -130 C 46.828125 -135.445312 37.226562 -143.488281 29.1875 -154.125 C 21.144531 -164.769531 17.125 -178.65625 17.125 -195.78125 C 17.125 -221.207031 26.332031 -241.117188 44.75 -255.515625 C 63.175781 -269.921875 87.179688 -277.125 116.765625 -277.125 C 146.867188 -277.125 171.128906 -269.921875 189.546875 -255.515625 C 207.972656 -241.117188 217.832031 -221.078125 219.125 -195.390625 L 147.125 -195.390625 C 146.601562 -204.210938 143.359375 -211.148438 137.390625 -216.203125 C 131.421875 -221.265625 123.769531 -223.796875 114.4375 -223.796875 C 106.382812 -223.796875 99.894531 -221.65625 94.96875 -217.375 C 90.039062 -213.09375 87.578125 -206.929688 87.578125 -198.890625 C 87.578125 -190.066406 91.726562 -183.1875 100.03125 -178.25 C 108.332031 -173.320312 121.304688 -168.003906 138.953125 -162.296875 C 156.597656 -156.335938 170.929688 -150.628906 181.953125 -145.171875 C 192.984375 -139.722656 202.519531 -131.8125 210.5625 -121.4375 C 218.613281 -111.0625 222.640625 -97.695312 222.640625 -81.34375 C 222.640625 -65.78125 218.679688 -51.640625 210.765625 -38.921875 C 202.847656 -26.203125 191.363281 -16.082031 176.3125 -8.5625 C 161.257812 -1.039062 143.488281 2.71875 123 2.71875 Z M 123 2.71875 "/></g></g></g><g fill="#01007c" fill-opacity="1"><g transform="translate(1283.655716, 1897.465941)"><g><path d="M 258.4375 -273.234375 L 163.859375 -90.296875 L 163.859375 0 L 97.3125 0 L 97.3125 -90.296875 L 2.71875 -273.234375 L 78.234375 -273.234375 L 131.171875 -158.796875 L 183.71875 -273.234375 Z M 258.4375 -273.234375 "/></g></g></g><g fill="#01007c" fill-opacity="1"><g transform="translate(1569.34185, 1897.465941)"><g><path d="M 123 2.71875 C 103.007812 2.71875 85.097656 -0.519531 69.265625 -7 C 53.441406 -13.488281 40.796875 -23.085938 31.328125 -35.796875 C 21.859375 -48.515625 16.863281 -63.828125 16.34375 -81.734375 L 87.1875 -81.734375 C 88.21875 -71.617188 91.71875 -63.898438 97.6875 -58.578125 C 103.65625 -53.253906 111.441406 -50.59375 121.046875 -50.59375 C 130.910156 -50.59375 138.695312 -52.863281 144.40625 -57.40625 C 150.113281 -61.945312 152.96875 -68.238281 152.96875 -76.28125 C 152.96875 -83.03125 150.695312 -88.609375 146.15625 -93.015625 C 141.613281 -97.429688 136.03125 -101.066406 129.40625 -103.921875 C 122.789062 -106.773438 113.390625 -110.019531 101.203125 -113.65625 C 83.554688 -119.101562 69.148438 -124.550781 57.984375 -130 C 46.828125 -135.445312 37.226562 -143.488281 29.1875 -154.125 C 21.144531 -164.769531 17.125 -178.65625 17.125 -195.78125 C 17.125 -221.207031 26.332031 -241.117188 44.75 -255.515625 C 63.175781 -269.921875 87.179688 -277.125 116.765625 -277.125 C 146.867188 -277.125 171.128906 -269.921875 189.546875 -255.515625 C 207.972656 -241.117188 217.832031 -221.078125 219.125 -195.390625 L 147.125 -195.390625 C 146.601562 -204.210938 143.359375 -211.148438 137.390625 -216.203125 C 131.421875 -221.265625 123.769531 -223.796875 114.4375 -223.796875 C 106.382812 -223.796875 99.894531 -221.65625 94.96875 -217.375 C 90.039062 -213.09375 87.578125 -206.929688 87.578125 -198.890625 C 87.578125 -190.066406 91.726562 -183.1875 100.03125 -178.25 C 108.332031 -173.320312 121.304688 -168.003906 138.953125 -162.296875 C 156.597656 -156.335938 170.929688 -150.628906 181.953125 -145.171875 C 192.984375 -139.722656 202.519531 -131.8125 210.5625 -121.4375 C 218.613281 -111.0625 222.640625 -97.695312 222.640625 -81.34375 C 222.640625 -65.78125 218.679688 -51.640625 210.765625 -38.921875 C 202.847656 -26.203125 191.363281 -16.082031 176.3125 -8.5625 C 161.257812 -1.039062 143.488281 2.71875 123 2.71875 Z M 123 2.71875 "/></g></g></g><g fill="#01007c" fill-opacity="1"><g transform="translate(1833.231827, 1897.465941)"><g><path d="M 220.6875 -273.234375 L 220.6875 -219.90625 L 148.296875 -219.90625 L 148.296875 0 L 81.734375 0 L 81.734375 -219.90625 L 9.34375 -219.90625 L 9.34375 -273.234375 Z M 220.6875 -273.234375 "/></g></g></g><g fill="#01007c" fill-opacity="1"><g transform="translate(2087.780512, 1897.465941)"><g><path d="M 90.6875 -219.90625 L 90.6875 -164.640625 L 179.8125 -164.640625 L 179.8125 -113.265625 L 90.6875 -113.265625 L 90.6875 -53.328125 L 191.5 -53.328125 L 191.5 0 L 24.125 0 L 24.125 -273.234375 L 191.5 -273.234375 L 191.5 -219.90625 Z M 90.6875 -219.90625 "/></g></g></g><g fill="#01007c" fill-opacity="1"><g transform="translate(2322.868327, 1897.465941)"><g><path d="M 333.5625 -273.234375 L 333.5625 0 L 267 0 L 267 -163.859375 L 205.890625 0 L 152.1875 0 L 90.6875 -164.25 L 90.6875 0 L 24.125 0 L 24.125 -273.234375 L 102.75 -273.234375 L 179.4375 -84.078125 L 255.328125 -273.234375 Z M 333.5625 -273.234375 "/></g></g></g></svg>